<svg xmlns="http://www.w3.org/2000/svg" width="1080" height="1350" viewBox="0 0 1080 1350">
  <defs>
    <!-- Fundo em degradê vertical -->
    <linearGradient id="bg" x1="0" y1="0" x2="0" y2="1">
      <stop offset="0%" stop-color="#0F172A"/>
      <stop offset="100%" stop-color="#111827"/>
    </linearGradient>

    <!-- Gradiente de destaque -->
    <linearGradient id="accent" x1="0" y1="0" x2="1" y2="1">
      <stop offset="0%" stop-color="#22C55E"/>
      <stop offset="100%" stop-color="#16A34A"/>
    </linearGradient>

    <style>
      .title { font: 800 96px system-ui, -apple-system, "Segoe UI", Roboto, sans-serif; fill: #F8FAFC; letter-spacing: 0.5px; }
      .name  { font: 800 56px system-ui, -apple-system, "Segoe UI", Roboto, sans-serif; fill: #F8FAFC; }
      .desc  { font: 600 44px system-ui, -apple-system, "Segoe UI", Roboto, sans-serif; fill: #CBD5E1; }
      .icon  { fill: none; stroke: #FFFFFF; stroke-width: 2; stroke-linecap: round; stroke-linejoin: round; }
    </style>
  </defs>

  <!-- Fundo -->
  <rect width="1080" height="1350" fill="url(#bg)"/>

  <!-- Título (2 linhas) -->
  <text class="title" x="540" y="260" text-anchor="middle">Interface</text>
  <text class="title" x="540" y="360" text-anchor="middle">Ninja</text>

  <!-- Círculo central -->
  <circle cx="540" cy="720" r="280" fill="url(#accent)"/>

  <!-- Ícone (path 24x24 obtido de https://lucide.dev/icons/, reposicionado e com scaling) -->
  <g transform="translate(540,720) scale(14) translate(-12 -12)">
    <path class="icon" d="M10 14.66v1.626a2 2 0 0 1-.976 1.696A5 5 0 0 0 7 21.978"/>
    <path class="icon" d="M14 14.66v1.626a2 2 0 0 0 .976 1.696A5 5 0 0 1 17 21.978"/>
    <path class="icon" d="M18 9h1.5a1 1 0 0 0 0-5H18"/>
    <path class="icon" d="M4 22h16"/>
    <path class="icon" d="M6 9a6 6 0 0 0 12 0V3a1 1 0 0 0-1-1H7a1 1 0 0 0-1 1z"/>
    <path class="icon" d="M6 9H4.5a1 1 0 0 1 0-5H6"/>
  </g>

  <!-- Nome -->
  <text class="name" x="540" y="1100" text-anchor="middle">Gabriela</text>

  <!-- Motivo -->
  <text class="desc" x="540" y="1170" text-anchor="middle">Usou interfaces com eficiência!</text>
</svg>
